<svg height="512" viewBox="0 0 60 60" width="512" xmlns="http://www.w3.org/2000/svg"><g id="Page-1" fill="none" fill-rule="evenodd"><g id="028---Audio-Book" fill="rgb(0,0,0)" fill-rule="nonzero"><path id="Shape" d="m40 22h-14c-1.1045695 0-2 .8954305-2 2v8c0 1.1045695.8954305 2 2 2h14c1.1045695 0 2-.8954305 2-2v-8c0-1.1045695-.8954305-2-2-2zm-14 10v-8h14v8z"/><path id="Shape" d="m41 44h-16c-.5522847 0-1 .4477153-1 1s.4477153 1 1 1h16c.5522847 0 1-.4477153 1-1s-.4477153-1-1-1z"/><path id="Shape" d="m37 48h-8c-.5522847 0-1 .4477153-1 1s.4477153 1 1 1h8c.5522847 0 1-.4477153 1-1s-.4477153-1-1-1z"/><path id="Shape" d="m56 28.1v-2.1c0-14.3594035-11.6405965-26-26-26s-26 11.6405965-26 26v2.1c-2.3264168.4784327-3.99700171 2.5248992-4 4.9v8c.00330612 2.7600532 2.23994685 4.9966939 5 5h3.184c.42225455 1.1943509 1.54921457 1.9947486 2.816 2h1c.3414397-.0033144.679743-.0655622 1-.184v9.184c0 1.6568542 1.3431458 3 3 3h28c1.6568542 0 3-1.3431458 3-3v-9.184c.320257.1184378.6585603.1806856 1 .184h1c1.2667854-.0052514 2.3937454-.8056491 2.816-2h2.184v13c0 .5522847.4477153 1 1 1s1-.4477153 1-1v-13.1c2.3264168-.4784327 3.9970017-2.5248992 4-4.9v-8c-.0029983-2.3751008-1.6735832-4.4215673-4-4.9zm-26-26.1c13.2484376.01542952 23.9845705 10.7515624 24 24v2h-2.184c-.4222546-1.1943509-1.5492146-1.9947486-2.816-2h-1c-.3414397.0033144-.679743.0655622-1 .184v-7.184c0-1.6568542-1.3431458-3-3-3h-28c-1.6568542 0-3 1.3431458-3 3v7.184c-.320257-.1184378-.6585603-.1806856-1-.184h-1c-1.26678543.0052514-2.39374545.8056491-2.816 2h-2.184v-2c.01542952-13.2484376 10.7515624-23.98457048 24-24zm-28 39v-8c0-1.6568542 1.34314575-3 3-3h3v14h-3c-1.65685425 0-3-1.3431458-3-3zm10 5h-1c-.5522847 0-1-.4477153-1-1v-16c0-.5522847.4477153-1 1-1h1c.5522847 0 1 .4477153 1 1v16c0 .5522847-.4477153 1-1 1zm3 11v-38c0-.5522847.4477153-1 1-1h3v40h-3c-.5522847 0-1-.4477153-1-1zm30 0c0 .5522847-.4477153 1-1 1h-23v-40h23c.5522847 0 1 .4477153 1 1zm5-12c0 .5522847-.4477153 1-1 1h-1c-.5522847 0-1-.4477153-1-1v-16c0-.5522847.4477153-1 1-1h1c.5522847 0 1 .4477153 1 1zm8-4c0 1.6568542-1.3431458 3-3 3h-3v-14h3c1.6568542 0 3 1.3431458 3 3z"/></g></g></svg>