<?xml version="1.0"?>
<svg xmlns="http://www.w3.org/2000/svg" id="Layer_1" data-name="Layer 1" viewBox="0 0 512 512" width="512" height="512" style="fill:#fff;"><path d="M484.775,213.605a143.005,143.005,0,0,0-42.647-97.369A145.65,145.65,0,0,0,339.011,74.062q-5.37,0-10.674.38V32a6,6,0,0,0-6-6H55.721C30.51,26,10,46.015,10,70.618V441.355h0v.027C10,465.985,30.51,486,55.721,486H303.9a6,6,0,0,0,6-6V407.758l12.455-.046a6,6,0,0,0,5.978-6V356.151c9.158-2.569,20-.685,32.3,5.634l29.639,15.226A54.721,54.721,0,0,0,432.8,380.09l.123-.042a54.259,54.259,0,0,0,36.363-45.285h8.6A24.114,24.114,0,0,0,502,310.7V236.663A24.109,24.109,0,0,0,484.775,213.605ZM433.69,124.767A131.083,131.083,0,0,1,472.731,212.6H461.015a119.594,119.594,0,0,0-35.6-79.6,123.052,123.052,0,0,0-172.473.007,119.615,119.615,0,0,0-35.6,79.59H205.3a131.108,131.108,0,0,1,39.039-87.825,135.141,135.141,0,0,1,189.356-.008Zm3.559,198V224.6h12.5v98.163ZM201.381,224.6h16.136v98.163H201.381a12.1,12.1,0,0,1-12.11-12.063V236.663A12.1,12.1,0,0,1,201.381,224.6Zm28.136,0h12.5v98.163h-12.5ZM65.365,38h37.683v76.559L89.4,100.51l-.609-.383a8.658,8.658,0,0,0-9.164,0l-.61.383-13.65,14.05ZM297.9,474H55.721C37.127,474,22,459.368,22,441.327c0-17.985,15.127-32.617,33.743-32.617L297.9,407.8ZM55.721,396.71A46.1,46.1,0,0,0,22,411.24V70.618C22,53.4,35.867,39.263,53.365,38.089V123.03a8.609,8.609,0,0,0,13.189,7.282l.61-.383,17.043-17.542,17.042,17.541.61.384a8.608,8.608,0,0,0,13.189-7.282V38H316.337V75.787A145.129,145.129,0,0,0,235.9,116.244a143.039,143.039,0,0,0-42.659,97.773,24.1,24.1,0,0,0-15.965,22.646V310.7a24.114,24.114,0,0,0,24.11,24.063h44.4a8.25,8.25,0,0,0,8.244-8.238V220.839a8.251,8.251,0,0,0-8.244-8.239H229.365a107.7,107.7,0,0,1,32.016-71.059,109.4,109.4,0,0,1,54.956-29.476V395.734Zm373.315-28.016-.122.042a42.669,42.669,0,0,1-33.154-2.4l-29.639-15.226c-13.585-6.978-26.466-9.414-37.784-7.252V110.25q5.369-.514,10.84-.517a109.881,109.881,0,0,1,77.8,31.8A107.677,107.677,0,0,1,448.993,212.6h-15.5a8.251,8.251,0,0,0-8.244,8.239V326.525a8.25,8.25,0,0,0,8.244,8.238h23.695A42.26,42.26,0,0,1,429.036,368.694ZM490,310.7a12.1,12.1,0,0,1-12.11,12.063H461.754V224.6H477.89A12.1,12.1,0,0,1,490,236.663Z"/><path d="M180.168,213.738a6,6,0,0,0-6-6h-22.15a6,6,0,1,0,0,12h22.15A6,6,0,0,0,180.168,213.738Z"/><path d="M69.868,219.738H130.01a6,6,0,0,0,0-12H69.868a6,6,0,1,0,0,12Z"/><path d="M154.168,257.666H100.7a6,6,0,1,0,0,12h53.468a6,6,0,0,0,0-12Z"/><path d="M69.868,269.666h9.18a6,6,0,0,0,0-12h-9.18a6,6,0,1,0,0,12Z"/><path d="M154.168,307.666h-.042a6.021,6.021,0,1,0,.042,0Z"/><path d="M132.048,307.666H69.868a6,6,0,1,0,0,12h62.18a6,6,0,0,0,0-12Z"/></svg>
