<?xml version="1.0" encoding="iso-8859-1"?>
<!-- Generator: Adobe Illustrator 19.0.0, SVG Export Plug-In . SVG Version: 6.00 Build 0)  -->
<svg version="1.1" id="Capa_1" xmlns="http://www.w3.org/2000/svg" xmlns:xlink="http://www.w3.org/1999/xlink" x="0px" y="0px"
	 viewBox="0 0 416.252 416.252" style="enable-background:new 0 0 416.252 416.252;" xml:space="preserve">
<g>
	<g>
		<path d="M304.64,77.126c-13.94-0.785-24.604-12.722-23.818-26.662c0.723-12.843,10.975-23.095,23.818-23.818l-0.24,0
			c4.418,0,8-3.582,8-8s-3.582-8-8-8H41.04C18.335,10.778,0,29.221,0,51.926v325.76c0.044,15.402,12.518,27.876,27.92,27.92h256.8
			c15.402-0.044,27.876-12.518,27.92-27.92V85.126C312.64,80.708,309.058,77.126,304.64,77.126z M38.197,26.646
			c0.947-0.053,1.896-0.053,2.843,0H272c-3.893,4.869-6.629,10.559-8,16.64h-73.2c-4.418,0-8,3.582-8,8s3.582,8,8,8H264
			c1.194,6.503,3.938,12.623,8,17.84H41.04c-13.94,0.785-25.876-9.879-26.662-23.818C13.593,39.368,24.257,27.431,38.197,26.646z
			 M296.4,377.686c0,6.583-5.337,11.92-11.92,11.92h0H27.68c-6.489-0.131-11.681-5.429-11.68-11.92v-293.2
			c7.227,5.619,16.126,8.66,25.28,8.64H296.4V377.686z"/>
	</g>
</g>
<g>
	<g>
		<path d="M244.896,170.63c-1.226-0.002-2.435,0.277-3.536,0.816l-65.92,32c-1.503-0.467-3.066-0.71-4.64-0.72h-33.12
			c-19.28,0-40,10.48-40,40v3.76c0.16,29.12,20.8,39.6,40,39.6h33.2c1.605-0.028,3.196-0.298,4.72-0.8l65.76,32
			c3.968,1.944,8.76,0.304,10.704-3.664c0.539-1.101,0.818-2.31,0.816-3.536v-131.44
			C252.889,174.228,249.314,170.639,244.896,170.63z M171.12,269.926h-33.44c-11.537,1.718-22.282-6.242-24-17.779
			c-0.307-2.062-0.307-4.158,0-6.221l0.24-3.44c-1.718-11.537,6.242-22.282,17.779-24c2.062-0.307,4.158-0.307,6.221,0h33.2V269.926
			z M236.88,297.206l-50-24v-57.52l50-24V297.206z"/>
	</g>
</g>
<g>
	<g>
		<path d="M340.62,175.186c-0.702-0.724-1.416-1.438-2.14-2.14v-0.08c-2.582-3.586-7.581-4.4-11.167-1.818
			c-3.586,2.581-4.4,7.581-1.818,11.167c0.515,0.716,1.145,1.341,1.865,1.852c33.137,31.96,34.091,84.732,2.13,117.87
			c-0.697,0.723-1.407,1.433-2.13,2.13c-3.181,3.071-3.271,8.139-0.2,11.32c3.071,3.181,8.139,3.271,11.32,0.2
			C377.869,277.479,378.827,214.575,340.62,175.186z"/>
	</g>
</g>
<g>
	<g>
		<path d="M380.052,155.099c-0.962-0.993-1.939-1.971-2.932-2.932c-3.181-3.071-8.249-2.981-11.32,0.2
			c-3.071,3.181-2.981,8.249,0.2,11.32c44.647,43.257,45.773,114.517,2.516,159.164c-0.825,0.852-1.664,1.691-2.516,2.516
			c-3.181,3.071-3.271,8.139-0.2,11.32c3.071,3.181,8.139,3.271,11.32,0.2C428.129,287.497,429.442,206.108,380.052,155.099z"/>
	</g>
</g>
<g>
</g>
<g>
</g>
<g>
</g>
<g>
</g>
<g>
</g>
<g>
</g>
<g>
</g>
<g>
</g>
<g>
</g>
<g>
</g>
<g>
</g>
<g>
</g>
<g>
</g>
<g>
</g>
<g>
</g>
</svg>
